<svg width="24" height="24" viewBox="0 0 24 24" fill="none" xmlns="http://www.w3.org/2000/svg">
<path fill-rule="evenodd" clip-rule="evenodd" d="M11.5 3.69995C11.9272 3.70004 12.3459 3.81909 12.7092 4.04375C13.0725 4.26842 13.3661 4.58983 13.557 4.97195L16.29 10.437C16.9648 9.61893 17.4173 8.64081 17.604 7.59695C17.7109 6.99637 18.052 6.46284 18.5522 6.11374C19.0525 5.76465 19.6709 5.62857 20.2715 5.73545C20.8721 5.84233 21.4056 6.18342 21.7547 6.68367C22.1038 7.18392 22.2399 7.80237 22.133 8.40295C21.6876 10.8883 20.3855 13.139 18.453 14.764L19.557 16.972C19.6969 17.2426 19.7816 17.5383 19.8062 17.8419C19.8308 18.1455 19.7949 18.451 19.7005 18.7406C19.6061 19.0303 19.4551 19.2982 19.2563 19.529C19.0575 19.7598 18.8148 19.9488 18.5423 20.085C18.2699 20.2213 17.973 20.302 17.6691 20.3226C17.3652 20.3432 17.0602 20.3032 16.7719 20.2049C16.4835 20.1067 16.2176 19.9521 15.9895 19.7503C15.7614 19.5484 15.5756 19.3032 15.443 19.029L14.384 16.911C13.4447 17.1705 12.4745 17.3017 11.5 17.301C10.5255 17.3017 9.55536 17.1705 8.61602 16.911L7.55702 19.029C7.27941 19.5662 6.80142 19.9724 6.2265 20.1598C5.65158 20.3472 5.02598 20.3007 4.48513 20.0302C3.94428 19.7598 3.53168 19.2873 3.33664 18.7149C3.14161 18.1425 3.17982 17.5164 3.44302 16.972L4.54702 14.764C3.68293 14.0356 2.93736 13.1774 2.33702 12.22C2.01346 11.7028 1.90859 11.0783 2.04549 10.4838C2.18239 9.88927 2.54985 9.37352 3.06702 9.04995C3.58419 8.72639 4.20872 8.62152 4.80321 8.75842C5.3977 8.89532 5.91346 9.26278 6.23702 9.77995C6.38102 10.0106 6.53869 10.2296 6.71002 10.437L9.44302 4.97195C9.63395 4.58983 9.92752 4.26842 10.2908 4.04375C10.6541 3.81909 11.0729 3.70004 11.5 3.69995ZM10.744 12.655C11.2462 12.7157 11.7538 12.7157 12.256 12.655L11.5 11.143L10.744 12.655Z" fill="white"/>
</svg>
