<svg width="24" height="24" viewBox="0 0 24 24" fill="none" xmlns="http://www.w3.org/2000/svg">
<path fill-rule="evenodd" clip-rule="evenodd" d="M11.47 2.152C11.6289 2.05267 11.8126 2 12 2C12.1874 2 12.3711 2.05267 12.53 2.152L19.434 6.467L12 10.84L4.566 6.467L11.47 2.152ZM3.008 7.871C3.00256 7.91378 2.99989 7.95687 3 8V16C3 16.1696 3.04314 16.3364 3.12536 16.4848C3.20758 16.6331 3.32618 16.7581 3.47 16.848L11 21.554V12.572L3.008 7.871ZM13 21.554L20.53 16.848C20.6738 16.7581 20.7924 16.6331 20.8746 16.4848C20.9569 16.3364 21 16.1696 21 16V8C21 7.95667 20.9973 7.91367 20.992 7.871L13 12.571V21.554Z" fill="white"/>
</svg>
