<svg width="175" height="175" viewBox="0 0 175 175" fill="none" xmlns="http://www.w3.org/2000/svg">
<path d="M21.875 87.5C21.875 96.118 23.5724 104.652 26.8704 112.614C30.1684 120.576 35.0023 127.81 41.0961 133.904C47.19 139.998 54.4244 144.832 62.3864 148.13C70.3484 151.428 78.882 153.125 87.5 153.125C96.118 153.125 104.652 151.428 112.614 148.13C120.576 144.832 127.81 139.998 133.904 133.904C139.998 127.81 144.832 120.576 148.13 112.614C151.428 104.652 153.125 96.118 153.125 87.5C153.125 70.0952 146.211 53.4032 133.904 41.0961C121.597 28.789 104.905 21.875 87.5 21.875C70.0952 21.875 53.4032 28.789 41.0961 41.0961C28.789 53.4032 21.875 70.0952 21.875 87.5Z" stroke="white" stroke-width="5" stroke-linecap="round" stroke-linejoin="round"/>
<path d="M87.5 51.0417V87.5L109.375 109.375" stroke="white" stroke-width="5" stroke-linecap="round" stroke-linejoin="round"/>
</svg>
