<svg width="24" height="24" viewBox="0 0 24 24" fill="none" xmlns="http://www.w3.org/2000/svg">
<path d="M11.9999 1.46814H0.894287L2.80304 17.8369L11.9905 22.5244H12.0018L21.2024 17.8369L23.1055 1.46814H11.9999ZM20.0193 11.7544C20.0193 11.9194 20.0193 12.0675 19.8749 12.1294L13.7343 15.0825L13.2805 15.2944L13.2299 14.7038V13.5431L13.2749 13.2488L13.4793 13.1606L17.8255 11.2144L13.7868 9.41439L12.0655 12.8138L11.0437 14.7881L10.8149 15.2138L10.4305 15.045L4.12491 12.1331C4.05009 12.1008 3.98536 12.0489 3.93752 11.9829C3.88968 11.917 3.8605 11.8393 3.85304 11.7581V10.6706C3.85939 10.5899 3.8875 10.5124 3.93439 10.4464C3.98127 10.3803 4.04517 10.3283 4.11929 10.2956L10.4943 7.34626L11.0962 7.07626V8.88751L11.1412 9.13877L10.8487 9.27001L6.45929 11.2106L10.5562 13.0163L12.0655 10.0163L13.2299 7.64439L13.4418 7.21689L13.7812 7.38752L19.8749 10.2919C20.0118 10.3575 20.0174 10.5056 20.0174 10.6669L20.0193 11.7544Z" fill="white"/>
</svg>
