<svg width="20" height="20" viewBox="0 0 20 20" fill="none" xmlns="http://www.w3.org/2000/svg">
<path d="M9.99999 20C8.32999 20 6.83999 18.5 5.89999 15.93C5.82999 15.73 5.92999 15.5 6.13999 15.44C6.33999 15.36 6.55999 15.47 6.62999 15.67C7.43999 17.9 8.69999 19.23 9.99999 19.23C10.94 19.23 11.87 18.55 12.62 17.31C12.6743 17.2253 12.7597 17.1651 12.8577 17.1424C12.9558 17.1196 13.0589 17.1361 13.145 17.1883C13.2311 17.2405 13.2934 17.3242 13.3186 17.4217C13.3438 17.5191 13.33 17.6226 13.28 17.71C12.38 19.19 11.22 20 9.99999 20ZM13.91 15.72C13.8726 15.7185 13.8355 15.7118 13.8 15.7C13.59 15.63 13.5 15.42 13.54 15.21C14 13.81 14.22 12.18 14.22 10.5C14.22 6.65 12.97 3.24 11.19 2.14C10.94 2.5 10.5 2.78 9.99999 2.78C9.23999 2.78 8.60999 2.16 8.60999 1.39C8.60999 0.62 9.23999 0 9.99999 0C10.77 0 11.4 0.61 11.41 1.37C13.53 2.5 15 6.21 15 10.5C15 12.25 14.75 13.96 14.28 15.45C14.23 15.61 14.08 15.72 13.91 15.72ZM9.99999 0.77C9.65999 0.77 9.37999 1.05 9.37999 1.39C9.37999 1.73 9.66999 2 9.99999 2C10.35 2 10.64 1.73 10.64 1.39C10.64 1.05 10.35 0.77 9.99999 0.77ZM2.07999 16.54C1.30999 16.54 0.679993 15.91 0.679993 15.15C0.679993 14.66 0.939993 14.22 1.32999 13.97C1.18999 11.56 3.67999 8.41 7.49999 6.22C9.08999 5.32 10.75 4.67 12.32 4.34C12.5 4.29 12.73 4.42 12.77 4.63C12.82 4.84 12.69 5.05 12.5 5.09C11 5.41 9.40999 6.03 7.89999 6.89C4.45999 8.86 2.09999 11.68 2.09999 13.76C2.85999 13.77 3.49999 14.39 3.49999 15.15C3.49999 15.92 2.84999 16.54 2.07999 16.54ZM2.07999 14.53C1.73999 14.53 1.45999 14.81 1.45999 15.15C1.45999 15.5 1.73999 15.77 2.07999 15.77C2.41999 15.77 2.70999 15.5 2.70999 15.15C2.70999 14.81 2.41999 14.53 2.07999 14.53ZM16.5 11.44C16.43 11.44 16.34 11.41 16.27 11.35C16.1925 11.2819 16.1448 11.1861 16.1373 11.0832C16.1298 10.9803 16.1631 10.8786 16.23 10.8C17.77 9 18.3 7.26 17.64 6.14C17.17 5.33 16.1 4.88 14.63 4.86C14.41 4.86 14.24 4.68 14.25 4.47C14.25 4.26 14.43 4.1 14.64 4.09C16.39 4.11 17.7 4.7 18.31 5.75C19.15 7.19 18.6 9.21 16.82 11.3C16.74 11.39 16.63 11.44 16.5 11.44ZM14.5 16.9C12.5 16.9 9.93999 16.16 7.49999 14.77C5.94999 13.88 4.56999 12.79 3.49999 11.63C3.42966 11.5557 3.39047 11.4573 3.39047 11.355C3.39047 11.2527 3.42966 11.1543 3.49999 11.08C3.67999 10.94 3.91999 10.95 4.06999 11.11C5.07999 12.21 6.39999 13.25 7.88999 14.1C11.2 16 14.77 16.63 16.65 15.72C16.57 15.55 16.5 15.35 16.5 15.15C16.5 14.38 17.15 13.76 17.92 13.76C18.69 13.76 19.32 14.38 19.32 15.15C19.3191 15.4002 19.251 15.6456 19.1228 15.8604C18.9946 16.0753 18.811 16.2517 18.5913 16.3713C18.3715 16.4909 18.1236 16.5493 17.8736 16.5402C17.6236 16.5312 17.3806 16.4551 17.17 16.32C16.47 16.71 15.56 16.9 14.5 16.9ZM17.5 15.63C17.63 15.71 17.77 15.77 17.92 15.77C18.0844 15.77 18.2421 15.7047 18.3584 15.5884C18.4747 15.4721 18.54 15.3144 18.54 15.15C18.54 14.9856 18.4747 14.8279 18.3584 14.7116C18.2421 14.5953 18.0844 14.53 17.92 14.53C17.57 14.53 17.3 14.81 17.3 15.15C17.3 15.29 17.35 15.42 17.43 15.53C17.47 15.55 17.5 15.59 17.5 15.63ZM2.45999 10C2.32999 10 2.19999 9.92 2.12999 9.8C1.22999 8.25 1.07999 6.81 1.69999 5.74C2.53999 4.3 4.57999 3.76 7.30999 4.25C7.49999 4.29 7.65999 4.5 7.61999 4.7C7.58999 4.91 7.38999 5.05 7.17999 5C4.81999 4.59 2.99999 5 2.36999 6.13C1.88999 6.95 2.03999 8.11 2.79999 9.41C2.89999 9.6 2.83999 9.83 2.64999 9.94C2.58999 9.97 2.52999 10 2.45999 10ZM10.21 11.4C9.9713 11.453 9.72131 11.4091 9.51502 11.2778C9.30873 11.1465 9.16304 10.9387 9.10999 10.7C9.05695 10.4613 9.1009 10.2113 9.23217 10.005C9.36345 9.79873 9.5713 9.65304 9.80999 9.6C10.31 9.5 10.81 9.81 10.91 10.31C11 10.8 10.7 11.29 10.21 11.4Z" fill="white"/>
</svg>
