<svg width="24" height="24" viewBox="0 0 24 24" fill="none" xmlns="http://www.w3.org/2000/svg">
<path d="M5.33301 5.333C5.33301 4.44903 5.68416 3.60127 6.30922 2.97621C6.93428 2.35115 7.78204 2 8.66601 2H15.333C16.2171 2 17.065 2.35121 17.6901 2.97636C18.3153 3.60151 18.6665 4.4494 18.6665 5.3335C18.6665 6.2176 18.3153 7.06549 17.6901 7.69064C17.065 8.31579 16.2171 8.667 15.333 8.667H12V18.667C11.9998 19.3261 11.8042 19.9704 11.4379 20.5183C11.0716 21.0663 10.551 21.4933 9.94203 21.7455C9.33304 21.9976 8.66297 22.0635 8.01653 21.9349C7.37008 21.8063 6.77629 21.4889 6.31022 21.0228C5.84415 20.5567 5.52674 19.9629 5.3981 19.3165C5.26946 18.67 5.33538 18 5.58753 17.391C5.83967 16.782 6.26671 16.2614 6.81467 15.8951C7.36262 15.5288 8.00689 15.3332 8.66601 15.333C7.78204 15.333 6.93428 14.9818 6.30922 14.3568C5.68416 13.7317 5.33301 12.884 5.33301 12C5.33301 11.116 5.68416 10.2683 6.30922 9.64321C6.93428 9.01815 7.78204 8.667 8.66601 8.667C8.22823 8.667 7.79474 8.58076 7.39029 8.41319C6.98585 8.24563 6.61838 8.00004 6.30887 7.69043C5.99936 7.38083 5.75387 7.01328 5.58643 6.60879C5.41899 6.2043 5.33288 5.77078 5.33301 5.333ZM12 12C12 12.884 12.3512 13.7317 12.9762 14.3568C13.6013 14.9818 14.449 15.333 15.333 15.333C16.217 15.333 17.0647 14.9818 17.6898 14.3568C18.3149 13.7317 18.666 12.884 18.666 12C18.666 11.116 18.3149 10.2683 17.6898 9.64321C17.0647 9.01815 16.217 8.667 15.333 8.667C14.449 8.667 13.6013 9.01815 12.9762 9.64321C12.3512 10.2683 12 11.116 12 12Z" fill="white"/>
</svg>
