<svg width="24" height="24" viewBox="0 0 24 24" fill="none" xmlns="http://www.w3.org/2000/svg">
<path d="M4.93137 1.16714C4.78605 0.749951 4.19543 0.749951 4.04543 1.16714L1.39699 9.36089H7.58449C7.5798 9.36089 4.93137 1.16714 4.93137 1.16714ZM0.0423024 13.4859C-0.0795726 13.8609 0.0563649 14.2781 0.375115 14.5171L11.9954 23.1421L1.3923 9.36089L0.0423024 13.4859ZM7.5798 9.36089L12.0001 23.1421L16.4204 9.36089H7.5798ZM23.9579 13.4859L22.6079 9.36089L12.0001 23.1421L23.6204 14.5171C23.9439 14.2781 24.0751 13.8609 23.9579 13.4859ZM19.9548 1.16714C19.8095 0.749951 19.2189 0.749951 19.0689 1.16714L16.4157 9.36089H22.6032L19.9548 1.16714Z" fill="white"/>
</svg>
