<svg width="24" height="24" viewBox="0 0 24 24" fill="none" xmlns="http://www.w3.org/2000/svg">
<path fill-rule="evenodd" clip-rule="evenodd" d="M8.504 2.93917C7.864 2.75357 7.392 2.80317 7.048 2.99037C6.7024 3.17597 6.4016 3.54557 6.2064 4.18237C6.0112 4.82397 5.9456 5.67997 6.04 6.71357C6.056 6.88104 6.07573 7.05224 6.0992 7.22717C6.98213 7.00699 7.87766 6.84082 8.7808 6.72957C9.39654 5.85709 10.0786 5.03332 10.8208 4.26557L10.7152 4.18077C9.9024 3.53757 9.1472 3.12477 8.504 2.93917ZM12 3.16317C11.904 3.08211 11.8069 3.00317 11.7088 2.92637C10.7936 2.20317 9.856 1.66397 8.9504 1.40157C8.0384 1.13757 7.1056 1.13757 6.2848 1.58397C5.464 2.03037 4.952 2.81117 4.6768 3.71837C4.4016 4.62077 4.3408 5.69917 4.4464 6.86237C4.47093 7.13437 4.5056 7.41331 4.5504 7.69917C4.27733 7.79517 4.016 7.89757 3.7664 8.00637C2.6928 8.46557 1.7728 9.03357 1.1104 9.70557C0.4448 10.3792 0 11.2 0 12.1344C0 13.0688 0.4448 13.888 1.1104 14.5648C1.7728 15.2368 2.6928 15.8032 3.7664 16.264C4.01707 16.3706 4.2784 16.473 4.5504 16.5712C4.50757 16.849 4.47289 17.1281 4.4464 17.408C4.3408 18.5696 4.4016 19.648 4.6768 20.552C4.952 21.4592 5.464 22.2416 6.2848 22.6848C7.1056 23.1296 8.04 23.1312 8.9504 22.8672C9.856 22.6032 10.7936 22.0672 11.7088 21.3424L12 21.104C12.096 21.185 12.1931 21.2645 12.2912 21.3424C13.2064 22.0656 14.144 22.6032 15.0496 22.8672C15.96 23.1312 16.8944 23.1296 17.7152 22.6848C18.536 22.2416 19.048 21.4592 19.3232 20.552C19.5984 19.6496 19.6592 18.5696 19.5536 17.408C19.5271 17.1281 19.4924 16.849 19.4496 16.5712C19.7216 16.4752 19.9829 16.3728 20.2336 16.264C21.3072 15.8032 22.2272 15.2352 22.8896 14.5648C23.5552 13.8896 24 13.0672 24 12.1328C24 11.2016 23.5552 10.3792 22.8896 9.70397C22.2272 9.03197 21.3072 8.46397 20.2336 8.00477C19.9753 7.89475 19.7139 7.79231 19.4496 7.69757C19.4923 7.41171 19.5269 7.13277 19.5536 6.86077C19.6592 5.69757 19.5984 4.62077 19.3232 3.71677C19.048 2.80957 18.536 2.02717 17.7152 1.58237C16.8944 1.13757 15.96 1.13757 15.0496 1.40157C14.144 1.66397 13.2064 2.20157 12.2912 2.92637L12 3.16317ZM12 5.34717C11.6395 5.71624 11.2811 6.11891 10.9248 6.55517C11.6413 6.52683 12.3587 6.52683 13.0752 6.55517C12.7355 6.13624 12.3767 5.73315 12 5.34717ZM15.2192 6.72957C14.5632 5.81117 13.8752 4.98237 13.1792 4.26557L13.2832 4.18077C14.0992 3.53757 14.8512 3.12477 15.496 2.93917C16.1344 2.75357 16.608 2.80317 16.952 2.99037C17.2976 3.17597 17.5984 3.54557 17.792 4.18237C17.9872 4.82397 18.0544 5.67997 17.96 6.71357C17.944 6.88211 17.9243 7.05277 17.9008 7.22557C17.0178 7.00593 16.1223 6.84029 15.2192 6.72957ZM14.3184 8.23997C12.7761 8.0961 11.2239 8.0961 9.6816 8.23997C8.85749 9.47229 8.1448 10.7756 7.552 12.1344C8.14513 13.4922 8.85725 14.7949 9.68 16.0272C11.2233 16.1712 12.7767 16.1712 14.32 16.0272C15.1435 14.7953 15.8556 13.4926 16.448 12.1344C15.8549 10.776 15.1412 9.47278 14.3184 8.23997ZM17.2384 10.0608C16.9738 9.54201 16.6926 9.03188 16.3952 8.53117C16.8112 8.61117 17.2123 8.70077 17.5984 8.79997C17.4981 9.21064 17.3781 9.63091 17.2384 10.0608ZM17.2384 14.2064C16.9738 14.7257 16.6926 15.2363 16.3952 15.7376C16.8112 15.6576 17.2123 15.5674 17.5984 15.4672C17.4928 15.0429 17.3727 14.6224 17.2384 14.2064ZM19.1264 14.9856C18.8769 14.0152 18.5626 13.0627 18.1856 12.1344C18.5792 11.1584 18.8944 10.2 19.1264 9.28317C19.2907 9.34504 19.4507 9.40904 19.6064 9.47517C20.56 9.88477 21.2816 10.3504 21.752 10.8272C22.2192 11.3008 22.4016 11.7424 22.4016 12.1344C22.4016 12.5264 22.2192 12.9664 21.752 13.44C21.2816 13.9184 20.56 14.384 19.6064 14.7936C19.4477 14.8608 19.2877 14.9248 19.1264 14.9856ZM17.9024 17.0416C17.0195 17.2618 16.1239 17.4279 15.2208 17.5392C14.5648 18.4576 13.8768 19.2848 13.1808 20.0032L13.2864 20.0864C14.0992 20.7312 14.8544 21.1424 15.4976 21.3296C16.136 21.5152 16.6096 21.4656 16.9536 21.2784C17.2976 21.0912 17.6 20.7216 17.7936 20.0848C17.9904 19.4448 18.056 18.5872 17.9616 17.5536C17.9458 17.3825 17.9261 17.2118 17.9024 17.0416ZM12 18.9216C12.3605 18.5525 12.7189 18.1498 13.0752 17.7136C12.3587 17.7419 11.6413 17.7419 10.9248 17.7136C11.2811 18.1488 11.6395 18.5514 12 18.9216ZM7.6064 15.7376C7.309 15.2363 7.02779 14.7257 6.7632 14.2064C6.62453 14.6373 6.50453 15.0576 6.4032 15.4672C6.78827 15.5674 7.18933 15.6576 7.6064 15.7376ZM6.0992 17.0416C6.98213 17.2618 7.87766 17.4279 8.7808 17.5392C9.4368 18.4576 10.1232 19.2848 10.8208 20.0032L10.7152 20.0864C9.9024 20.7312 9.1472 21.1424 8.504 21.3296C7.864 21.5152 7.392 21.4656 7.0464 21.2784C6.7008 21.0912 6.4016 20.7216 6.2064 20.0848C6.0112 19.4448 5.9456 18.5872 6.04 17.5536C6.05629 17.3825 6.07603 17.2118 6.0992 17.0416ZM4.8752 14.9856C5.1072 14.0672 5.4208 13.1104 5.816 12.1344C5.43899 11.2061 5.12468 10.2535 4.8752 9.28317C4.70987 9.34504 4.54987 9.40904 4.3952 9.47517C3.4416 9.88477 2.72 10.3504 2.2496 10.8272C1.7824 11.3008 1.6 11.7424 1.6 12.1344C1.6 12.5264 1.7824 12.9664 2.2496 13.44C2.72 13.9184 3.4416 14.384 4.3952 14.7936C4.55093 14.8586 4.71093 14.9226 4.8752 14.9856ZM6.4032 8.80157C6.50347 9.21117 6.62347 9.63091 6.7632 10.0608C7.02782 9.54201 7.30903 9.03188 7.6064 8.53117C7.1904 8.61117 6.78933 8.70131 6.4032 8.80157ZM9.6 12.1344C9.6 11.4979 9.85286 10.8874 10.3029 10.4373C10.753 9.98723 11.3635 9.73437 12 9.73437C12.6365 9.73437 13.247 9.98723 13.6971 10.4373C14.1471 10.8874 14.4 11.4979 14.4 12.1344C14.4 12.7709 14.1471 13.3813 13.6971 13.8314C13.247 14.2815 12.6365 14.5344 12 14.5344C11.3635 14.5344 10.753 14.2815 10.3029 13.8314C9.85286 13.3813 9.6 12.7709 9.6 12.1344ZM12 11.3344C11.7878 11.3344 11.5843 11.4187 11.4343 11.5687C11.2843 11.7187 11.2 11.9222 11.2 12.1344C11.2 12.3465 11.2843 12.55 11.4343 12.7001C11.5843 12.8501 11.7878 12.9344 12 12.9344C12.2122 12.9344 12.4157 12.8501 12.5657 12.7001C12.7157 12.55 12.8 12.3465 12.8 12.1344C12.8 11.9222 12.7157 11.7187 12.5657 11.5687C12.4157 11.4187 12.2122 11.3344 12 11.3344Z" fill="white"/>
</svg>
