<svg width="24" height="24" viewBox="0 0 24 24" fill="none" xmlns="http://www.w3.org/2000/svg">
<path d="M22.2189 11.784L11.7839 22.219C11.6041 22.4179 11.5075 22.6782 11.5142 22.9462C11.521 23.2142 11.6304 23.4694 11.82 23.659C12.0096 23.8485 12.2647 23.958 12.5327 23.9647C12.8008 23.9714 13.0611 23.8749 13.2599 23.695L23.6949 13.26C23.8748 13.0612 23.9713 12.8009 23.9646 12.5329C23.9579 12.2649 23.8484 12.0097 23.6589 11.8201C23.4693 11.6305 23.2141 11.5211 22.9461 11.5144C22.6781 11.5076 22.4177 11.6042 22.2189 11.784ZM20.1319 0.305041L0.304919 20.132C0.125076 20.3309 0.0285271 20.5912 0.0352401 20.8592C0.0419531 21.1272 0.151415 21.3824 0.340986 21.572C0.530557 21.7615 0.785736 21.871 1.05375 21.8777C1.32176 21.8844 1.5821 21.7879 1.78092 21.608L21.6079 1.78104C21.7878 1.58222 21.8843 1.32188 21.8776 1.05387C21.8709 0.785858 21.7614 0.530679 21.5719 0.341108C21.3823 0.151537 21.1271 0.0420751 20.8591 0.0353622C20.5911 0.0286492 20.3307 0.125198 20.1319 0.305041Z" fill="white"/>
</svg>
