<svg width="24" height="24" viewBox="0 0 24 24" fill="none" xmlns="http://www.w3.org/2000/svg">
<path d="M16.2946 20.8801C16.0678 20.9897 15.8124 21.0256 15.5641 20.9829C15.3158 20.9401 15.0872 20.8208 14.9101 20.6416L7.22412 13.5946L3.87612 16.149C3.72522 16.2638 3.53884 16.322 3.34945 16.3135C3.16005 16.305 2.97963 16.2304 2.83962 16.1026L1.76562 15.1201C1.68212 15.0432 1.61546 14.9499 1.56987 14.846C1.52427 14.742 1.50073 14.6298 1.50073 14.5163C1.50073 14.4028 1.52427 14.2906 1.56987 14.1867C1.61546 14.0827 1.68212 13.9894 1.76562 13.9125L4.66812 11.25L1.76562 8.58755C1.68212 8.5107 1.61546 8.41737 1.56987 8.31345C1.52427 8.20953 1.50073 8.09728 1.50073 7.9838C1.50073 7.87032 1.52427 7.75807 1.56987 7.65415C1.61546 7.55023 1.68212 7.4569 1.76562 7.38005L2.83962 6.39755C2.97981 6.26994 3.16032 6.19555 3.34972 6.18733C3.53911 6.17911 3.72539 6.23757 3.87612 6.35255L7.22412 8.90555L14.9101 1.86005C15.0879 1.68205 15.3167 1.56366 15.5646 1.5212C15.8126 1.47875 16.0677 1.51434 16.2946 1.62305L20.3101 3.56405C20.7316 3.76805 21.0001 4.19705 21.0001 4.66805V12H16.1281V6.80105L10.2961 11.25L16.1281 15.699V12H21.0001V17.8335C21.0001 18.3046 20.7316 18.7336 20.3101 18.9375L16.2946 20.8801Z" fill="white"/>
</svg>
